<?xml version="1.0" encoding="iso-8859-1"?>
<!-- Generator: Adobe Illustrator 19.0.0, SVG Export Plug-In . SVG Version: 6.00 Build 0)  -->
<svg version="1.1" id="Layer_1" xmlns="http://www.w3.org/2000/svg" xmlns:xlink="http://www.w3.org/1999/xlink" x="0px" y="0px"
	 viewBox="0 0 511.999 511.999" style="enable-background:new 0 0 511.999 511.999;" xml:space="preserve">
<g>
	<g>
		<circle cx="191.963" cy="226.361" r="16.408"/>
	</g>
</g>
<g>
	<g>
		<circle cx="238.272" cy="226.361" r="16.408"/>
	</g>
</g>
<g>
	<g>
		<circle cx="284.571" cy="226.361" r="16.408"/>
	</g>
</g>
<g>
	<g>
		<circle cx="370.257" cy="103.011" r="16.408"/>
	</g>
</g>
<g>
	<g>
		<circle cx="416.556" cy="103.011" r="16.408"/>
	</g>
</g>
<g>
	<g>
		<circle cx="462.865" cy="103.011" r="16.408"/>
	</g>
</g>
<g>
	<g>
		<path d="M484.713,55.943H297.829c-4.523,0-8.188,3.666-8.188,8.188s3.665,8.188,8.188,8.188h186.884
			c6.016,0,10.91,4.895,10.91,10.911v50.466H194.665V83.229c0-6.016,4.894-10.911,10.91-10.911h59.504
			c4.523,0,8.188-3.666,8.188-8.188s-3.665-8.188-8.188-8.188h-59.503c-15.046,0-27.286,12.241-27.286,27.287v58.653v37.421H27.287
			C12.241,179.302,0,191.543,0,206.59v222.181c0,15.044,12.241,27.286,27.287,27.286h279.137c15.046,0,27.287-12.241,27.287-27.287
			v-96.074h151.003c15.046,0,27.286-12.24,27.286-27.287V83.229C511.999,68.184,499.759,55.943,484.713,55.943z M194.665,150.069
			h21.833v29.233h-21.833V150.069z M16.375,206.59c0-6.017,4.894-10.911,10.911-10.911c0,0,279.136,0,279.137,0
			c5.861,0,10.907,5.063,10.911,10.911v50.466H16.375V206.59z M317.337,286.299v38.209V428.77c0,6.016-4.894,10.911-10.911,10.911
			H27.287c-6.017,0-10.911-4.895-10.911-10.911V273.43h21.834v48.1c0,4.522,3.665,8.188,8.188,8.188s8.188-3.666,8.188-8.188v-48.1
			h224.543v128.042H54.584v-47.529c0-4.522-3.665-8.188-8.188-8.188s-8.188,3.666-8.188,8.188v55.717
			c0,4.522,3.665,8.188,8.188,8.188h240.918c4.523,0,8.188-3.666,8.188-8.188V273.43h21.834V286.299z M495.625,305.409
			c0,6.016-4.894,10.911-10.91,10.911H333.712v-21.834h67.464c4.523,0,8.188-3.666,8.188-8.188c0-4.522-3.665-8.188-8.188-8.188
			h-67.464c0,0,0-71.518,0-71.526c-0.055-3.627-0.741-7.308-2.161-10.652c-3.266-7.694-10.052-13.419-17.957-15.625
			c-2.333-0.652-4.743-1.004-7.167-1.004h-73.551v-29.234h224.541v128.042h-23.49c-4.523,0-8.188,3.666-8.188,8.188
			c0,4.522,3.665,8.188,8.188,8.188h31.678c4.523,0,8.188-3.666,8.188-8.188v-136.23h21.834V305.409z"/>
	</g>
</g>
<g>
</g>
<g>
</g>
<g>
</g>
<g>
</g>
<g>
</g>
<g>
</g>
<g>
</g>
<g>
</g>
<g>
</g>
<g>
</g>
<g>
</g>
<g>
</g>
<g>
</g>
<g>
</g>
<g>
</g>
</svg>
