<svg version="1.2" xmlns="http://www.w3.org/2000/svg" viewBox="0 0 780 800" width="780" height="800"><style>.a{fill:#008dff}.b{opacity:1;fill:#464b9f}.c{fill:#466d9f}.d{fill:#ffa000}.e{opacity:.9;fill:#c1e8f6}</style><path class="a" d="m598 504.3c6.6-0.2 21 2.3 32 5.8 11 3.4 27 12 35.6 19 8.5 7.1 20.1 21 25.7 30.9 6.1 10.7 11.1 27.3 12.4 41.1 2 20.1 1.2 24.3-6.7 33-5 5.4-10.8 9.9-13 9.9-2.2 0-13.5 6.9-25 15.4-11.6 8.4-38.1 23.9-59 34.3-23.3 11.6-41.1 18.1-46 16.8-4.4-1.1-16-8.9-25.7-17.3-9.8-8.5-21.8-24.1-27-35.2-6.7-14.5-9.2-27.2-9.2-46 0.1-16.6 2.7-31.8 7.4-42 4-8.8 12.5-22.1 18.9-29.5 6.4-7.5 18.8-17.2 27.6-21.7 8.8-4.5 21.4-9.4 28-11 6.6-1.7 17.4-3.2 24-3.5z"/><path class="b" d="m684 306.9c9.9 1.2 25.2 5.6 34 9.8 8.8 4.1 19.6 10.7 24 14.4 4.5 3.8 12.2 12.3 17.2 18.9 8.4 11.1 9.1 16 8.9 116l-13.1 15.6c-7.1 8.5-21.1 20.1-31 25.7-12.6 7.2-25.7 10.7-44 11.8-22.5 1.4-30.3-0.1-58-11.6-27-11.2-37-13.3-64-13.4-27.3 0-35.8 1.8-57.5 11.9-15.1 7.1-32.5 19.4-42.4 30-9.2 9.9-20 24.3-24 32-4 7.7-11.3 19.4-16.3 26-5 6.6-18.6 17.4-30.4 24-18.5 10.4-25.5 12-51.4 12-25.9 0-32.9-1.6-51.5-12-11.8-6.6-26.7-19.2-33.1-28-6.5-8.8-14.6-25.9-18.1-38-3.9-13.8-5.4-28.3-3.8-39 1.4-9.4 6.8-25.6 12.1-36 5.3-10.5 14.8-23.9 21-29.8 6.3-5.9 20.4-14.8 31.4-19.8 14-6.4 27.2-9 44-8.8 17.4 0.2 30.6 3.3 48 11.4 18.7 8.7 32 11.6 60 13.2 33.7 1.9 37.7 1.3 62-9.8 14.3-6.6 32.7-18.5 41-26.7 8.2-8.1 19.8-23.3 25.6-33.7 5.9-10.5 16.3-25 23-32.4 6.8-7.3 19.6-17 28.4-21.6 8.8-4.6 21.4-9.7 28-11.3 6.6-1.6 20.1-2 30-0.8z"/><path class="c" d="m470 200.4c16-0.1 30 2.5 42 7.9 9.9 4.5 24.1 13.9 31.5 20.9 7.4 7.1 17.7 21.8 23 32.8 6.3 13.5 9.4 27.2 9.4 42 0 15.2-3.1 28.8-10.2 44-5.6 12.1-15 27.1-21 33.4-5.9 6.2-19.7 15.9-30.7 21.6-15.1 7.7-26.3 10.2-46 10.4-20.5 0.1-31.1-2.2-50-11.1-16.3-7.6-33-11.9-52-13.3-15.4-1.1-36.1-0.9-46 0.4-11 1.5-27.8 8.8-43 18.6-18.7 12-28.9 22.3-40.7 41-8.6 13.7-20.8 31.1-27 38.5-6.2 7.5-18.5 17.8-27.3 23-8.8 5.2-25 10.6-36 12-11 1.4-26.8 1.4-35 0-14.8-2.5-15.2-3-25.8-35.5-9.4-29.1-10.9-40.5-13.2-159l10.8-7c7.2-4.7 21-7.4 41-8.3 26.2-1.2 34.3 0.3 61.2 11 24.9 9.9 36.9 12.3 61 12.3 21.3 0 36.6-2.5 53-8.8 15.2-5.9 29.9-15.8 43.2-29 11.1-11.1 25.9-30.6 33-43.2 8.1-14.6 19-27.2 29.8-34.4 9.3-6.3 22.4-13.3 29-15.7 6.6-2.3 22.8-4.4 36-4.5z"/><path class="d" d="m256 93c13.9 1.1 29.9 6 43.6 13.4 11.9 6.4 25.6 17 30.5 23.6 4.9 6.6 12.2 18.3 16.2 26 5.1 9.8 7.3 23 7.5 44 0.1 26.2-1.5 32.8-12.2 52-8.2 14.7-18.8 26.4-31.9 35.2-10.9 7.3-26.9 15.1-35.7 17.5-8.8 2.3-25 3.3-36 2.2-11-1.1-29-6.4-40-11.8-11-5.5-25.9-16.9-33-25.5-7.2-8.6-15.7-23.7-19.1-33.6-3.3-9.9-6-25.7-5.9-35 0-9.4 2.6-22 5.7-28 3.1-6.1 17.1-22.1 31-35.6 13.9-13.6 32.5-29.5 41.3-35.4 13.8-9.3 19.1-10.5 38-9z"/><path class="e" d="m414 2c30.4 1 60.5 4.7 82 10 18.7 4.6 51.1 16.5 72 26.5 20.9 9.9 48.8 25.8 62 35.2 13.2 9.4 39.3 33.4 58 53.2 18.7 19.8 41.6 49.3 51 65.6 9.3 16.2 21.8 43 27.8 59.5 9.4 25.9 11 37.3 12.1 84 0.8 32.9-0.1 51.7-2.2 48-2-3.3-4.7-16.8-6-30-1.3-13.2-7-38.4-12.7-56-5.7-17.6-18.7-49.1-29-70-15.8-32.1-24.3-43.6-55-74-22.2-22-48.6-43.4-68.1-55.1-17.6-10.5-49.9-25.2-71.9-32.8-25.2-8.6-55.6-15.5-82-18.6-32.2-3.7-50.9-3.8-80-0.3-20.9 2.5-49.7 8.4-64 13.1-14.3 4.7-35 12.9-46 18.2-11 5.4-33.4 20-49.8 32.6-16.4 12.6-42.2 37.3-57.4 54.9-20.5 23.7-34 45-76.4 132l1 80c0.5 44 2.9 87.2 5.2 96 2.3 8.8 5.5 17.8 7.1 20 1.6 2.2 5 11.2 7.5 20 2.5 8.8 12.9 30.4 23 48 10.1 17.6 28.1 44.1 40.1 59 11.9 14.8 29.3 32.6 38.7 39.4 9.3 6.8 30.5 19.1 47 27.4 16.5 8.3 38.6 18.4 49.1 22.6 10.6 4.2 19.1 8.5 18.9 9.6-0.1 1.1 7.5 4.2 16.9 6.9 9.4 2.7 34.2 6.9 55.1 9.4 20.9 2.6 49.7 3.5 64 2.1 14.3-1.4 42.2-7.3 62-13.2 19.8-5.8 36.9-11.3 38-12.1 1.1-0.9-0.7-3.2-4-5.3-4.3-2.6-1.1-3.7 11-3.7 11.1-0.1 22.5-3.6 33-10.1 8.8-5.5 22.7-12.8 31-16.2 8.2-3.4 24-13.7 35-22.7 11-9.1 22-16.7 24.4-16.8 2.4-0.2 14.2-10.2 26.1-22.3 12-12.1 25.9-27.4 30.9-34 8.6-11.4 8.9-11.5 6.4-2-1.5 5.5-6.9 17.6-12.2 27-5.3 9.3-7.8 17-5.6 17 2.2 0 9.6-7.7 16.4-17 6.8-9.4 15.9-24.2 20.3-33 6.3-12.8 8.8-14.9 12.6-10.8 3.7 4.1 1.6 11-9.3 31.7-7.7 14.6-21.3 36.6-30.2 48.8-9 12.3-28.8 34.7-44 49.9-15.3 15.1-40.4 36.3-55.8 47.1-15.4 10.8-37.9 23.3-50 27.8-12.1 4.5-44.5 13.6-72 20.3-48.6 11.7-52.1 12-122 10.1-49.8-1.4-79.4-4.1-96-8.7-13.2-3.7-40.2-14.5-60-24-19.8-9.5-50.4-28.1-68-41.3-17.6-13.1-39.5-31.8-48.7-41.4-9.3-9.6-26.8-31-39-47.5-12.2-16.5-30.3-46.2-40.1-66-9.9-19.8-21.5-49.5-25.9-66-4.4-16.5-10-49.8-12.5-74-3.5-33.5-3.4-51.7 0.2-76 2.6-17.6 9-45.5 14.3-62 5.2-16.5 17.8-46.2 28-66 10.2-19.8 26.2-46.8 35.5-60 9.4-13.2 28.1-35.3 41.6-49 13.5-13.8 35.8-33.3 49.6-43.4 13.7-10.2 36.7-24.4 51-31.6 14.3-7.2 41.3-17.8 60-23.6 18.7-5.8 44.8-12.2 58-14.3 13.2-2 45.6-3 72-2.1z"/></svg>